<svg width="45" height="38" viewBox="0 0 45 38" fill="none" xmlns="http://www.w3.org/2000/svg">
<path d="M14.2352 38H8.34299V13.5111L4.5365 4.22222H0V0H7.35226L10.7937 8.44444H45L37.5434 23.275C39.3163 23.5565 40.8028 24.3833 42.0028 25.7556C43.2014 27.1278 43.8007 28.7463 43.8007 30.6111C43.8007 32.6519 43.0971 34.3935 41.6899 35.8361C40.2813 37.2787 38.5689 38 36.5527 38C34.5017 38 32.7727 37.2787 31.3655 35.8361C29.9569 34.3935 29.2526 32.6519 29.2526 30.6111C29.2526 29.9074 29.3395 29.2565 29.5133 28.6583C29.6871 28.0602 29.9305 27.4796 30.2433 26.9167L23.4125 26.2833L14.2352 38ZM33.0591 22.9583L38.2213 12.6667L12.5145 12.7194L16.1124 21.375L33.0591 22.9583ZM12.5145 22.5889V33.725L18.7196 25.8611L13.6616 25.3861L12.5145 22.5889ZM36.5006 33.7778C37.4044 33.7778 38.1518 33.4696 38.7428 32.8531C39.3337 32.2381 39.6292 31.4907 39.6292 30.6111C39.6292 29.6963 39.3337 28.9398 38.7428 28.3417C38.1518 27.7435 37.4044 27.4444 36.5006 27.4444C35.6315 27.4444 34.8932 27.7435 34.2855 28.3417C33.6765 28.9398 33.372 29.6963 33.372 30.6111C33.372 31.4907 33.6765 32.2381 34.2855 32.8531C34.8932 33.4696 35.6315 33.7778 36.5006 33.7778ZM33.0591 22.9583L16.1124 21.375L33.0591 22.9583Z" fill="#6D6875"/>
</svg>
